<svg xmlns="http://www.w3.org/2000/svg" xmlns:xlink="http://www.w3.org/1999/xlink" width="1080" zoomAndPan="magnify" viewBox="0 0 810 809.999993" height="1080" preserveAspectRatio="xMidYMid meet" version="1.0"><defs><filter x="0%" y="0%" width="100%" height="100%" id="c0c1c1bd57"><feColorMatrix values="0 0 0 0 1 0 0 0 0 1 0 0 0 0 1 0 0 0 1 0" color-interpolation-filters="sRGB"/></filter><mask id="da16d4a915"><g filter="url(#c0c1c1bd57)"><rect x="-81" width="972" fill="#000000" y="-80.999999" height="971.999992" fill-opacity="0.87"/></g></mask><clipPath id="eeb855d6ea"><path d="M 0 0 L 810 0 L 810 810 L 0 810 Z M 0 0 " clip-rule="nonzero"/></clipPath><clipPath id="687c71c66f"><rect x="0" width="810" y="0" height="810"/></clipPath></defs><g mask="url(#da16d4a915)"><g transform="matrix(1, 0, 0, 1, 0, 0.000000000000039746)"><g clip-path="url(#687c71c66f)"><g clip-path="url(#eeb855d6ea)"><rect x="-178.2" width="1166.4" fill="#0f22ed" height="1166.39999" y="-178.199998" fill-opacity="1"/></g></g></g></g><path fill="#0f22ed" d="M 73.140625 0.0742188 L 97.171875 0.0742188 L 97.703125 0.605469 L 61.707031 36.597656 L 49.691406 24.582031 L 73.664062 0.605469 Z M 123.214844 0.0742188 L 74.199219 49.085938 L 135.230469 110.117188 L 196.265625 49.085938 L 159.738281 12.558594 L 123.214844 49.085938 L 135.230469 61.105469 L 159.738281 36.597656 L 172.226562 49.089844 L 135.230469 86.09375 L 98.230469 49.089844 L 147.242188 0.0820312 L 123.214844 0.0820312 Z M 173.289062 0.0742188 L 197.328125 0.0742188 L 221.300781 24.046875 L 209.285156 36.0625 Z M 343.203125 0.0742188 L 367.234375 0.0742188 L 367.765625 0.605469 L 331.769531 36.601562 L 319.753906 24.582031 L 343.726562 0.605469 Z M 393.277344 0.0742188 L 344.257812 49.085938 L 405.292969 110.117188 L 466.324219 49.085938 L 429.796875 12.558594 L 393.269531 49.085938 L 405.292969 61.105469 L 429.796875 36.601562 L 442.289062 49.089844 L 405.292969 86.09375 L 368.289062 49.089844 L 417.300781 0.0820312 L 393.277344 0.0820312 Z M 443.351562 0.0742188 L 467.386719 0.0742188 L 491.363281 24.046875 L 479.347656 36.0625 Z M 613.261719 0.0742188 L 637.292969 0.0742188 L 637.820312 0.605469 L 601.824219 36.597656 L 589.808594 24.582031 L 613.789062 0.605469 Z M 663.332031 0.0742188 L 614.320312 49.085938 L 675.351562 110.117188 L 736.386719 49.085938 L 699.859375 12.558594 L 663.332031 49.085938 L 675.347656 61.105469 L 699.859375 36.597656 L 712.347656 49.089844 L 675.347656 86.09375 L 638.34375 49.089844 L 687.363281 0.0820312 L 663.332031 0.0820312 Z M 713.410156 0.0742188 L 737.449219 0.0742188 L 761.421875 24.046875 L 749.40625 36.0625 Z M 810.382812 73.007812 L 810.382812 97.039062 L 809.851562 97.578125 L 773.855469 61.582031 L 785.878906 49.558594 L 809.851562 73.535156 Z M 810.382812 123.089844 L 810.382812 147.125 L 761.367188 98.109375 L 724.363281 135.109375 L 761.367188 172.105469 L 773.855469 159.617188 L 749.351562 135.109375 L 761.367188 123.089844 L 797.894531 159.617188 L 761.367188 196.144531 L 700.332031 135.109375 L 761.367188 74.070312 Z M 810.382812 173.164062 L 774.386719 209.160156 L 786.402344 221.179688 L 810.382812 197.199219 Z M 810.382812 343.070312 L 810.382812 367.101562 L 809.851562 367.636719 L 773.855469 331.644531 L 785.871094 319.621094 L 809.851562 343.59375 Z M 810.382812 393.148438 L 761.367188 344.132812 L 700.332031 405.171875 L 761.367188 466.203125 L 797.886719 429.675781 L 761.367188 393.148438 L 749.34375 405.171875 L 773.855469 429.675781 L 761.367188 442.167969 L 724.363281 405.171875 L 761.367188 368.167969 L 810.382812 417.179688 Z M 810.382812 443.226562 L 810.382812 467.257812 L 786.402344 491.234375 L 774.386719 479.214844 Z M 810.382812 613.128906 L 810.382812 637.160156 L 809.851562 637.695312 L 773.855469 601.699219 L 785.878906 589.683594 L 809.851562 613.65625 Z M 810.382812 663.210938 L 761.367188 614.195312 L 700.332031 675.226562 L 761.367188 736.265625 L 797.894531 699.738281 L 761.367188 663.210938 L 749.351562 675.226562 L 773.855469 699.738281 L 761.367188 712.226562 L 724.363281 675.226562 L 761.367188 638.226562 L 810.382812 687.242188 Z M 810.382812 713.285156 L 810.382812 737.316406 L 786.402344 761.296875 L 774.386719 749.277344 Z M 737.449219 810.257812 L 713.410156 810.257812 L 712.878906 809.726562 L 748.875 773.730469 L 760.890625 785.75 L 736.910156 809.726562 Z M 687.363281 810.257812 L 663.332031 810.257812 L 712.347656 761.246094 L 675.347656 724.242188 L 638.34375 761.246094 L 650.839844 773.734375 L 675.347656 749.230469 L 687.363281 761.25 L 650.839844 797.777344 L 614.3125 761.25 L 675.347656 700.210938 L 736.378906 761.25 Z M 637.292969 810.257812 L 601.296875 774.261719 L 589.28125 786.28125 L 613.261719 810.257812 Z M 467.386719 810.257812 L 443.351562 810.257812 L 442.824219 809.730469 L 478.816406 773.734375 L 490.835938 785.75 L 466.855469 809.730469 Z M 417.308594 810.257812 L 466.324219 761.246094 L 405.292969 700.210938 L 344.257812 761.246094 L 380.785156 797.773438 L 417.3125 761.246094 L 405.296875 749.222656 L 380.785156 773.734375 L 368.296875 761.238281 L 405.296875 724.238281 L 442.300781 761.238281 L 393.28125 810.25 Z M 367.234375 810.257812 L 343.203125 810.257812 L 319.222656 786.28125 L 331.242188 774.261719 Z M 197.320312 810.257812 L 173.289062 810.257812 L 172.757812 809.726562 L 208.753906 773.730469 L 220.769531 785.75 L 196.789062 809.726562 Z M 147.246094 810.257812 L 196.265625 761.246094 L 135.230469 700.207031 L 74.199219 761.246094 L 110.726562 797.773438 L 147.246094 761.246094 L 135.230469 749.222656 L 110.726562 773.730469 L 98.230469 761.238281 L 135.230469 724.238281 L 172.234375 761.238281 L 123.214844 810.25 Z M 97.171875 810.257812 L 73.132812 810.257812 L 49.15625 786.28125 L 61.171875 774.261719 Z M 0.199219 737.316406 L 0.199219 713.285156 L 0.730469 712.753906 L 36.722656 748.75 L 24.707031 760.769531 L 0.730469 736.792969 Z M 0.199219 687.242188 L 0.199219 663.210938 L 49.21875 712.222656 L 86.214844 675.222656 L 49.21875 638.21875 L 36.722656 650.714844 L 61.234375 675.222656 L 49.21875 687.242188 L 12.691406 650.714844 L 49.21875 614.1875 L 110.25 675.222656 L 49.21875 736.253906 Z M 0.199219 637.160156 L 36.191406 601.171875 L 24.175781 589.152344 L 0.199219 613.125 Z M 0.199219 467.257812 L 0.199219 443.226562 L 0.730469 442.691406 L 36.726562 478.6875 L 24.710938 490.710938 L 0.730469 466.734375 Z M 0.199219 417.179688 L 49.21875 466.199219 L 110.25 405.164062 L 49.21875 344.128906 L 12.691406 380.652344 L 49.21875 417.179688 L 61.234375 405.164062 L 36.726562 380.652344 L 49.21875 368.164062 L 86.214844 405.164062 L 49.21875 442.167969 L 0.199219 393.148438 Z M 0.199219 367.101562 L 0.199219 343.070312 L 24.175781 319.09375 L 36.191406 331.117188 Z M 0.199219 197.195312 L 0.199219 173.164062 L 0.730469 172.632812 L 36.722656 208.628906 L 24.707031 220.648438 L 0.730469 196.667969 Z M 0.199219 147.121094 L 0.199219 123.089844 L 49.21875 172.101562 L 86.214844 135.097656 L 49.21875 98.097656 L 36.722656 110.59375 L 61.234375 135.097656 L 49.21875 147.121094 L 12.691406 110.59375 L 49.21875 74.066406 L 110.25 135.097656 L 49.21875 196.136719 Z M 0.199219 97.039062 L 36.191406 61.050781 L 24.175781 49.027344 L 0.199219 73.003906 Z M 736.386719 491.179688 L 638.351562 589.207031 L 675.351562 626.210938 L 712.355469 589.207031 L 699.863281 576.710938 L 675.351562 601.21875 L 663.335938 589.203125 L 699.863281 552.675781 L 736.390625 589.203125 L 675.359375 650.234375 L 614.324219 589.203125 L 712.355469 491.171875 L 675.351562 454.171875 L 638.351562 491.171875 L 650.847656 503.664062 L 675.351562 479.15625 L 687.375 491.179688 L 650.847656 527.707031 L 614.320312 491.179688 L 675.351562 430.144531 Z M 613.789062 540.722656 L 589.808594 564.703125 L 601.824219 576.71875 L 637.820312 540.722656 C 625.648438 528.546875 613.472656 516.375 601.296875 504.199219 L 589.28125 516.214844 Z M 736.910156 539.664062 L 760.890625 515.691406 L 748.875 503.667969 L 712.878906 539.664062 C 725.054688 551.839844 737.230469 564.015625 749.402344 576.191406 L 761.417969 564.175781 Z M 491.304688 614.195312 L 430.273438 675.226562 L 491.304688 736.257812 L 527.832031 699.734375 L 491.304688 663.207031 L 479.289062 675.226562 L 503.796875 699.734375 L 491.304688 712.226562 L 454.308594 675.226562 L 491.304688 638.226562 L 589.339844 736.253906 L 650.371094 675.222656 L 589.339844 614.1875 L 552.8125 650.714844 L 589.339844 687.242188 L 601.355469 675.222656 L 576.847656 650.714844 L 589.339844 638.21875 L 626.339844 675.222656 L 589.339844 712.222656 Z M 540.855469 736.785156 L 516.347656 761.296875 L 504.328125 749.277344 C 516.503906 737.101562 528.679688 724.925781 540.855469 712.75 L 576.847656 748.742188 L 564.835938 760.765625 Z M 539.789062 613.664062 L 564.300781 589.15625 L 576.316406 601.175781 C 564.140625 613.351562 551.964844 625.523438 539.789062 637.699219 L 503.796875 601.703125 L 515.8125 589.683594 Z M 196.265625 491.179688 L 135.230469 430.144531 L 74.199219 491.179688 L 110.726562 527.707031 L 147.25 491.179688 L 135.234375 479.15625 L 110.726562 503.664062 L 98.234375 491.171875 L 135.234375 454.171875 L 172.234375 491.171875 L 74.203125 589.203125 L 135.234375 650.234375 L 196.269531 589.203125 L 159.742188 552.675781 L 123.222656 589.203125 L 135.234375 601.21875 L 159.742188 576.710938 L 172.234375 589.207031 L 135.234375 626.210938 L 98.234375 589.207031 Z M 73.664062 540.722656 L 49.160156 516.214844 L 61.175781 504.199219 C 73.351562 516.375 85.527344 528.546875 97.703125 540.722656 L 61.707031 576.71875 L 49.691406 564.703125 Z M 196.796875 539.664062 L 221.300781 564.175781 L 209.285156 576.191406 C 197.109375 564.015625 184.933594 551.839844 172.757812 539.664062 L 208.753906 503.667969 L 220.773438 515.691406 Z M 319.277344 736.257812 L 221.246094 638.226562 L 184.242188 675.226562 L 221.246094 712.226562 L 233.734375 699.738281 L 209.230469 675.226562 L 221.246094 663.210938 L 257.769531 699.738281 L 221.246094 736.265625 L 160.210938 675.226562 L 221.246094 614.195312 L 319.273438 712.222656 L 356.273438 675.222656 L 319.273438 638.21875 L 306.78125 650.714844 L 331.292969 675.222656 L 319.273438 687.242188 L 282.746094 650.714844 L 319.273438 614.1875 L 380.304688 675.222656 Z M 269.730469 613.664062 L 245.753906 589.6875 L 233.734375 601.703125 L 269.730469 637.699219 C 281.90625 625.527344 294.082031 613.351562 306.257812 601.175781 L 294.242188 589.15625 Z M 270.789062 736.792969 L 294.765625 760.765625 L 306.78125 748.742188 L 270.789062 712.75 C 258.613281 724.925781 246.433594 737.101562 234.257812 749.277344 L 246.28125 761.296875 Z M 466.324219 221.117188 L 368.296875 319.148438 L 405.296875 356.148438 L 442.300781 319.148438 L 429.804688 306.65625 L 405.296875 331.164062 L 393.28125 319.140625 L 429.804688 282.613281 L 466.332031 319.140625 L 405.296875 380.175781 L 344.265625 319.140625 L 442.300781 221.113281 L 405.296875 184.109375 L 368.296875 221.113281 L 380.785156 233.609375 L 405.296875 209.101562 L 417.3125 221.117188 L 380.785156 257.644531 L 344.257812 221.117188 L 405.292969 160.085938 Z M 343.726562 270.667969 L 319.753906 294.640625 L 331.773438 306.664062 L 367.765625 270.667969 C 355.589844 258.492188 343.414062 246.316406 331.242188 234.140625 L 319.222656 246.15625 Z M 466.855469 269.609375 L 490.835938 245.628906 L 478.816406 233.613281 L 442.824219 269.609375 C 454.996094 281.785156 467.171875 293.960938 479.347656 306.128906 L 491.367188 294.113281 Z M 589.339844 466.199219 L 650.371094 405.164062 L 589.339844 344.128906 L 552.8125 380.652344 L 589.339844 417.179688 L 601.355469 405.164062 L 576.84375 380.652344 L 589.339844 368.164062 L 626.339844 405.164062 L 589.339844 442.167969 L 491.304688 344.132812 L 430.273438 405.171875 L 491.304688 466.203125 L 527.832031 429.675781 L 491.304688 393.148438 L 479.289062 405.171875 L 503.800781 429.675781 L 491.304688 442.171875 L 454.308594 405.171875 L 491.304688 368.167969 Z M 539.789062 343.601562 L 564.300781 319.09375 L 576.324219 331.117188 C 564.148438 343.292969 551.972656 355.46875 539.796875 367.644531 L 503.804688 331.648438 L 515.824219 319.628906 Z M 540.855469 466.730469 L 516.347656 491.234375 L 504.328125 479.214844 C 516.503906 467.039062 528.679688 454.863281 540.855469 442.6875 L 576.847656 478.683594 L 564.835938 490.703125 Z M 344.257812 589.214844 L 442.289062 491.183594 L 405.292969 454.183594 L 368.289062 491.183594 L 380.78125 503.679688 L 405.292969 479.167969 L 417.308594 491.191406 L 380.78125 527.71875 L 344.253906 491.191406 L 405.285156 430.15625 L 466.320312 491.191406 L 368.289062 589.21875 L 405.292969 626.222656 L 442.289062 589.21875 L 429.796875 576.722656 L 405.292969 601.234375 L 393.269531 589.214844 L 429.796875 552.6875 L 466.324219 589.214844 L 405.292969 650.246094 Z M 466.851562 539.664062 L 490.832031 515.691406 L 478.808594 503.675781 L 442.8125 539.664062 C 454.988281 551.839844 467.164062 564.015625 479.339844 576.191406 L 491.355469 564.175781 Z M 343.726562 540.722656 L 319.753906 564.703125 L 331.769531 576.71875 L 367.765625 540.722656 C 355.589844 528.546875 343.414062 516.375 331.238281 504.199219 L 319.222656 516.214844 Z M 221.246094 344.132812 L 319.277344 442.160156 L 356.28125 405.164062 L 319.277344 368.164062 L 306.789062 380.652344 L 331.292969 405.164062 L 319.277344 417.179688 L 282.75 380.652344 L 319.277344 344.128906 L 380.3125 405.164062 L 319.277344 466.199219 L 221.25 368.167969 L 184.25 405.171875 L 221.25 442.167969 L 233.738281 429.675781 L 209.234375 405.171875 L 221.253906 393.148438 L 257.78125 429.675781 L 221.253906 466.203125 L 160.222656 405.171875 Z M 270.792969 466.722656 L 294.773438 490.703125 L 306.789062 478.683594 L 270.792969 442.6875 C 258.617188 454.863281 246.441406 467.039062 234.265625 479.214844 L 246.28125 491.234375 Z M 269.730469 343.601562 L 245.75 319.628906 L 233.730469 331.648438 L 269.722656 367.644531 C 281.898438 355.46875 294.074219 343.292969 306.246094 331.117188 L 294.230469 319.09375 Z M 614.320312 319.152344 L 675.351562 380.183594 L 736.386719 319.152344 L 699.859375 282.625 L 663.332031 319.152344 L 675.351562 331.175781 L 699.859375 306.664062 L 712.355469 319.160156 L 675.351562 356.160156 L 638.351562 319.160156 L 736.378906 221.128906 L 675.347656 160.097656 L 614.3125 221.128906 L 650.839844 257.65625 L 687.363281 221.128906 L 675.347656 209.109375 L 650.839844 233.613281 L 638.34375 221.125 L 675.347656 184.121094 L 712.347656 221.125 Z M 736.910156 269.605469 L 761.417969 294.113281 L 749.402344 306.128906 C 737.226562 293.957031 725.054688 281.78125 712.878906 269.605469 L 748.875 233.609375 L 760.890625 245.628906 Z M 613.789062 270.660156 L 589.28125 246.15625 L 601.296875 234.132812 C 613.472656 246.308594 625.644531 258.484375 637.820312 270.660156 L 601.824219 306.65625 L 589.808594 294.640625 Z M 491.304688 74.070312 L 589.332031 172.101562 L 626.335938 135.097656 L 589.332031 98.097656 L 576.84375 110.59375 L 601.347656 135.097656 L 589.332031 147.121094 L 552.808594 110.59375 L 589.332031 74.066406 L 650.367188 135.097656 L 589.332031 196.136719 L 491.300781 98.101562 L 454.304688 135.105469 L 491.300781 172.105469 L 503.789062 159.617188 L 479.285156 135.105469 L 491.300781 123.089844 L 527.828125 159.617188 L 491.300781 196.144531 L 430.265625 135.105469 Z M 540.855469 196.664062 L 564.835938 220.644531 L 576.847656 208.621094 L 540.855469 172.625 C 528.679688 184.800781 516.507812 196.976562 504.328125 209.152344 L 516.347656 221.175781 Z M 539.789062 73.539062 L 515.8125 49.566406 L 503.796875 61.585938 L 539.789062 97.578125 C 551.964844 85.40625 564.140625 73.230469 576.316406 61.054688 L 564.300781 49.035156 Z M 319.277344 196.136719 L 221.246094 98.109375 L 184.242188 135.109375 L 221.246094 172.105469 L 233.734375 159.617188 L 209.230469 135.109375 L 221.246094 123.089844 L 257.769531 159.617188 L 221.246094 196.144531 L 160.210938 135.109375 L 221.246094 74.070312 L 319.273438 172.101562 L 356.273438 135.105469 L 319.273438 98.101562 L 306.78125 110.59375 L 331.292969 135.105469 L 319.273438 147.121094 L 282.746094 110.59375 L 319.273438 74.066406 L 380.304688 135.105469 Z M 269.730469 73.539062 L 245.753906 49.566406 L 233.734375 61.585938 L 269.730469 97.582031 C 281.90625 85.40625 294.082031 73.230469 306.257812 61.054688 L 294.242188 49.035156 Z M 270.789062 196.667969 L 294.765625 220.644531 L 306.78125 208.621094 L 270.789062 172.625 C 258.613281 184.800781 246.433594 196.976562 234.257812 209.152344 L 246.28125 221.175781 Z M 74.199219 319.152344 L 172.226562 221.125 L 135.226562 184.121094 L 98.222656 221.125 L 110.71875 233.613281 L 135.226562 209.109375 L 147.242188 221.128906 L 110.71875 257.65625 L 74.191406 221.128906 L 135.226562 160.097656 L 196.257812 221.128906 L 98.230469 319.160156 L 135.230469 356.160156 L 172.234375 319.160156 L 159.742188 306.664062 L 135.230469 331.175781 L 123.214844 319.152344 L 159.742188 282.625 L 196.265625 319.152344 L 135.230469 380.183594 Z M 196.789062 269.605469 L 220.769531 245.628906 L 208.753906 233.609375 L 172.757812 269.605469 C 184.933594 281.78125 197.109375 293.957031 209.285156 306.128906 L 221.300781 294.113281 Z M 73.664062 270.660156 L 49.6875 294.640625 L 61.707031 306.65625 L 97.699219 270.660156 C 85.527344 258.484375 73.351562 246.308594 61.175781 234.132812 L 49.160156 246.15625 Z M 73.664062 270.660156 " fill-opacity="1" fill-rule="evenodd"/><path fill="#0f22ed" d="M 810.382812 786.757812 L 786.878906 810.25 L 810.382812 810.25 Z M 0.199219 0.0742188 L 23.699219 0.0742188 L 0.199219 23.574219 Z M 246.757812 0.0742188 L 293.761719 0.0742188 L 270.253906 23.574219 Z M 516.824219 0.0742188 L 563.832031 0.0742188 L 540.328125 23.574219 Z M 786.882812 0.0742188 L 810.386719 0.0742188 L 810.386719 23.574219 Z M 810.382812 246.628906 L 810.382812 293.640625 L 786.878906 270.140625 Z M 810.382812 516.691406 L 810.382812 563.703125 L 786.878906 540.203125 Z M 563.828125 810.257812 L 516.824219 810.257812 L 540.320312 786.761719 Z M 293.765625 810.257812 L 246.761719 810.257812 L 270.261719 786.761719 Z M 23.699219 810.257812 L 0.199219 810.257812 L 0.199219 786.761719 Z M 0.199219 563.703125 L 0.199219 516.691406 L 23.707031 540.195312 Z M 0.199219 293.640625 L 0.199219 246.628906 L 23.707031 270.136719 Z M 270.261719 293.640625 L 293.765625 270.140625 L 270.261719 246.636719 L 246.757812 270.140625 Z M 540.320312 293.640625 L 563.828125 270.140625 L 540.320312 246.636719 L 516.816406 270.140625 Z M 270.261719 563.707031 L 293.765625 540.203125 L 270.261719 516.695312 L 246.757812 540.203125 Z M 540.320312 563.707031 L 563.828125 540.203125 L 540.320312 516.695312 L 516.816406 540.203125 Z M 540.320312 563.707031 " fill-opacity="1" fill-rule="evenodd"/></svg>